<svg width="16" height="14" viewBox="0 0 16 14" fill="none" xmlns="http://www.w3.org/2000/svg">
<path d="M15.0541 8.81352C14.6895 8.43909 14.2087 8.2055 13.6934 8.15298V1.01286C13.6934 0.932042 13.6535 0.856678 13.5869 0.812687C13.5202 0.768697 13.4364 0.761877 13.3637 0.794614L9.27423 2.64461L5.18007 0.329473C5.17773 0.328109 5.17505 0.327086 5.1727 0.325722C5.17036 0.324358 5.16701 0.322653 5.16433 0.321629C5.15829 0.318901 5.15193 0.316173 5.1459 0.313786C5.14389 0.313104 5.14188 0.312081 5.13987 0.311399C5.12244 0.305602 5.10468 0.301851 5.08659 0.300146C5.08492 0.300146 5.0829 0.300146 5.08089 0.299805C5.07386 0.299805 5.06682 0.299805 5.05979 0.299805C5.05744 0.299805 5.05509 0.299805 5.05275 0.300146C5.04538 0.300828 5.03834 0.30151 5.03097 0.302533C5.02929 0.302874 5.02762 0.302874 5.02594 0.303215C5.0169 0.30492 5.00819 0.306966 4.99981 0.309353C4.99813 0.309694 4.99679 0.310376 4.99512 0.311058C4.98808 0.313445 4.98105 0.315832 4.97401 0.318901C4.973 0.319242 4.972 0.319583 4.97099 0.319924L0.774641 2.21834C0.689869 2.25688 0.635254 2.34213 0.635254 2.43659V11.9276C0.635254 12.0085 0.675127 12.0838 0.741805 12.1278C0.808482 12.1718 0.892249 12.1786 0.964958 12.1459L5.05442 10.2959L9.14858 12.6107C9.1516 12.6124 9.15495 12.6138 9.15796 12.6151C9.16198 12.6172 9.16634 12.6192 9.17036 12.6213C9.17606 12.6237 9.18209 12.626 9.18812 12.6281C9.19214 12.6294 9.19616 12.6312 9.20018 12.6322C9.20655 12.6339 9.21325 12.6352 9.21962 12.6366C9.22364 12.6373 9.22732 12.6383 9.23134 12.639C9.23972 12.64 9.24776 12.6407 9.25614 12.6407C9.25815 12.6407 9.26016 12.641 9.2625 12.641C9.27222 12.641 9.2816 12.6404 9.29098 12.639C9.29333 12.6387 9.29534 12.6383 9.29769 12.638C9.30472 12.637 9.31209 12.6356 9.31913 12.6335C9.32215 12.6329 9.32483 12.6322 9.32751 12.6312C9.33421 12.6294 9.34091 12.6271 9.34728 12.6243C9.34996 12.6233 9.35264 12.6226 9.35498 12.6213C9.35599 12.6209 9.35666 12.6206 9.35766 12.6202L11.479 11.6606C11.5788 11.8363 11.6981 11.9993 11.8351 12.1466L13.2907 13.7244C13.3349 13.7725 13.3969 13.7998 13.4615 13.7998C13.5262 13.7998 13.5882 13.7725 13.6324 13.7244L15.0879 12.1466C15.3148 11.9058 15.491 11.6207 15.606 11.3084C15.7159 11.0066 15.7621 10.685 15.7417 10.3641C15.7041 9.77961 15.4599 9.22887 15.0541 8.81352ZM13.2246 8.15332C12.7113 8.2072 12.2325 8.44045 11.8696 8.81318C11.4639 9.22853 11.2193 9.77961 11.1814 10.3638C11.163 10.655 11.1998 10.9469 11.2893 11.2238L9.49738 12.0344V3.06576L13.225 1.37979L13.2246 8.15332ZM5.3007 0.943977L9.02796 3.05143V11.9965L5.3007 9.88908V0.943977ZM1.10434 2.59141L4.83194 0.905443V9.87407L1.10434 11.5604V2.59141ZM15.1657 11.145C15.0722 11.3967 14.9295 11.6262 14.7462 11.8199L13.4615 13.2126L12.1769 11.8199C11.9936 11.6262 11.8509 11.3963 11.7574 11.145C11.6699 10.906 11.6331 10.6506 11.6488 10.3962C11.679 9.92659 11.8753 9.48395 12.2014 9.15044C12.5351 8.80977 12.9884 8.61812 13.4615 8.61812C13.9346 8.61812 14.3877 8.80977 14.7217 9.15044C15.0477 9.48429 15.2437 9.92659 15.2742 10.3962C15.29 10.6506 15.2531 10.9056 15.1657 11.145Z" fill="white"/>
</svg>
