<svg width="16" height="13" viewBox="0 0 16 13" fill="none" xmlns="http://www.w3.org/2000/svg">
<path d="M1.81643 12.5H14.1836C15.1862 12.4988 15.9988 11.6879 16 10.6873V2.31267C15.9988 1.31207 15.1862 0.501234 14.1836 0.5H1.81643C0.813758 0.501234 0.00123671 1.31207 0 2.31267V10.6873C0.00123671 11.6879 0.813758 12.4988 1.81643 12.5ZM1.81643 11.9601C1.53724 11.9604 1.26578 11.8687 1.0441 11.6993L4.7428 7.92406C4.81144 7.85526 4.83772 7.75498 4.81175 7.66149C4.78578 7.56801 4.71158 7.4955 4.61728 7.47205C4.52298 7.44829 4.42311 7.47668 4.35571 7.54672L0.691942 11.2868C0.593005 11.1026 0.541063 10.8965 0.541063 10.6873V2.90784L6.82852 8.22057C7.50531 8.79568 8.50056 8.79537 9.17704 8.21933L15.4589 2.90259V10.687C15.4592 10.8971 15.407 11.1036 15.3071 11.2884L11.6211 7.54579C11.5163 7.44058 11.3456 7.43935 11.2396 7.54332C11.1335 7.64761 11.1314 7.81762 11.2352 7.92406L14.954 11.7C14.7327 11.8684 14.4618 11.9597 14.1833 11.9594L1.81643 11.9601ZM1.81643 1.03994H14.1836C14.8434 1.04087 15.394 1.54317 15.4537 2.19912L8.82705 7.80774C8.35215 8.21193 7.65341 8.21224 7.17789 7.80836L0.54601 2.20437C0.602899 1.54626 1.15447 1.04087 1.81643 1.03994Z" fill="white"/>
</svg>
