<svg width="270" height="40" viewBox="0 0 270 40" fill="none" xmlns="http://www.w3.org/2000/svg">
<path d="M97.1017 24.9048H86.8291L84.6166 30.0391H82.5884L91.0172 10.8197H92.94L101.369 30.0391H99.3143L97.1017 24.9048ZM96.3906 23.2574L91.9654 12.9339L87.5403 23.2574H96.3906Z" fill="#1B1B1B"/>
<path d="M109.637 30.1764C108.268 30.1764 107.038 29.8652 105.95 29.2428C104.879 28.6205 104.036 27.7511 103.421 26.6345C102.806 25.4997 102.499 24.2275 102.499 22.8181C102.499 21.4087 102.806 20.1457 103.421 19.0291C104.036 17.9126 104.879 17.0431 105.95 16.4208C107.038 15.7985 108.268 15.4873 109.637 15.4873C110.831 15.4873 111.894 15.7344 112.824 16.2286C113.773 16.7045 114.519 17.4092 115.063 18.3427L113.667 19.3312C113.211 18.6173 112.631 18.0865 111.929 17.7387C111.227 17.3726 110.463 17.1896 109.637 17.1896C108.636 17.1896 107.732 17.4275 106.924 17.9034C106.134 18.361 105.511 19.02 105.054 19.8803C104.615 20.7406 104.396 21.7198 104.396 22.8181C104.396 23.9346 104.615 24.9231 105.054 25.7834C105.511 26.6254 106.134 27.2843 106.924 27.7602C107.732 28.2178 108.636 28.4466 109.637 28.4466C110.463 28.4466 111.227 28.2727 111.929 27.9249C112.631 27.5772 113.211 27.0464 113.667 26.3325L115.063 27.3209C114.519 28.2544 113.773 28.9683 112.824 29.4625C111.876 29.9384 110.814 30.1764 109.637 30.1764Z" fill="#1B1B1B"/>
<path d="M126.188 29.1605C125.837 29.49 125.398 29.7462 124.871 29.9293C124.362 30.094 123.826 30.1764 123.264 30.1764C121.965 30.1764 120.964 29.8103 120.261 29.0781C119.559 28.3459 119.208 27.3118 119.208 25.9756V17.2445H116.732V15.5971H119.208V12.4397H121.078V15.5971H125.292V17.2445H121.078V25.8657C121.078 26.726 121.28 27.385 121.684 27.8426C122.105 28.2819 122.702 28.5015 123.475 28.5015C123.861 28.5015 124.23 28.4375 124.581 28.3093C124.95 28.1812 125.266 27.9982 125.529 27.7602L126.188 29.1605Z" fill="#1B1B1B"/>
<path d="M129.592 15.5971H131.462V30.0391H129.592V15.5971ZM130.54 12.4397C130.154 12.4397 129.829 12.3024 129.566 12.0278C129.302 11.7532 129.171 11.4238 129.171 11.0394C129.171 10.6733 129.302 10.353 129.566 10.0784C129.829 9.80386 130.154 9.66658 130.54 9.66658C130.927 9.66658 131.252 9.80386 131.515 10.0784C131.778 10.3347 131.91 10.6458 131.91 11.0119C131.91 11.4146 131.778 11.7532 131.515 12.0278C131.252 12.3024 130.927 12.4397 130.54 12.4397Z" fill="#1B1B1B"/>
<path d="M142.329 30.1764C140.995 30.1764 139.792 29.8652 138.72 29.2428C137.649 28.6022 136.806 27.7236 136.192 26.6071C135.577 25.4905 135.27 24.2275 135.27 22.8181C135.27 21.4087 135.577 20.1457 136.192 19.0291C136.806 17.9126 137.649 17.0431 138.72 16.4208C139.792 15.7985 140.995 15.4873 142.329 15.4873C143.664 15.4873 144.866 15.7985 145.938 16.4208C147.009 17.0431 147.843 17.9126 148.44 19.0291C149.055 20.1457 149.362 21.4087 149.362 22.8181C149.362 24.2275 149.055 25.4905 148.44 26.6071C147.843 27.7236 147.009 28.6022 145.938 29.2428C144.866 29.8652 143.664 30.1764 142.329 30.1764ZM142.329 28.4466C143.312 28.4466 144.19 28.2178 144.963 27.7602C145.753 27.2843 146.368 26.6162 146.807 25.7559C147.246 24.8956 147.465 23.9163 147.465 22.8181C147.465 21.7198 147.246 20.7406 146.807 19.8803C146.368 19.02 145.753 18.361 144.963 17.9034C144.19 17.4275 143.312 17.1896 142.329 17.1896C141.346 17.1896 140.459 17.4275 139.669 17.9034C138.896 18.361 138.281 19.02 137.825 19.8803C137.386 20.7406 137.166 21.7198 137.166 22.8181C137.166 23.9163 137.386 24.8956 137.825 25.7559C138.281 26.6162 138.896 27.2843 139.669 27.7602C140.459 28.2178 141.346 28.4466 142.329 28.4466Z" fill="#1B1B1B"/>
<path d="M160.239 15.4873C161.978 15.4873 163.356 16.0181 164.374 17.0798C165.41 18.1231 165.929 19.6515 165.929 21.6649V30.0391H164.058V21.8571C164.058 20.3562 163.698 19.2122 162.978 18.4251C162.258 17.638 161.231 17.2445 159.897 17.2445C158.404 17.2445 157.219 17.7112 156.341 18.6448C155.48 19.56 155.05 20.8321 155.05 22.4612V30.0391H153.18V15.5971H154.971V18.2604C155.48 17.3818 156.183 16.7045 157.078 16.2286C157.991 15.7344 159.045 15.4873 160.239 15.4873Z" fill="#1B1B1B"/>
<path d="M190.885 30.0391L186.671 23.8614C186.197 23.9163 185.705 23.9438 185.196 23.9438H180.244V30.0391H178.295V10.8197H185.196C187.549 10.8197 189.393 11.4055 190.727 12.5769C192.062 13.7484 192.729 15.3592 192.729 17.4092C192.729 18.9102 192.36 20.1823 191.623 21.2256C190.903 22.2507 189.867 22.992 188.514 23.4496L193.019 30.0391H190.885ZM185.143 22.2141C186.969 22.2141 188.365 21.7931 189.331 20.9511C190.297 20.1091 190.78 18.9285 190.78 17.4092C190.78 15.8534 190.297 14.6636 189.331 13.8399C188.365 12.9979 186.969 12.5769 185.143 12.5769H180.244V22.2141H185.143Z" fill="#1B1B1B"/>
<path d="M208.998 23.4221H197.408C197.514 24.9231 198.067 26.1403 199.068 27.0738C200.069 27.989 201.333 28.4466 202.861 28.4466C203.721 28.4466 204.511 28.291 205.231 27.9799C205.951 27.6504 206.575 27.1745 207.102 26.5521L208.155 27.8151C207.541 28.5839 206.768 29.1696 205.837 29.5723C204.924 29.975 203.914 30.1764 202.808 30.1764C201.386 30.1764 200.121 29.8652 199.015 29.2428C197.926 28.6022 197.075 27.7236 196.46 26.6071C195.846 25.4905 195.538 24.2275 195.538 22.8181C195.538 21.4087 195.828 20.1457 196.407 19.0291C197.005 17.9126 197.812 17.0431 198.831 16.4208C199.867 15.7985 201.026 15.4873 202.308 15.4873C203.59 15.4873 204.74 15.7985 205.758 16.4208C206.777 17.0431 207.576 17.9126 208.155 19.0291C208.735 20.1274 209.024 21.3904 209.024 22.8181L208.998 23.4221ZM202.308 17.1621C200.973 17.1621 199.849 17.6106 198.936 18.5075C198.041 19.3861 197.531 20.5392 197.408 21.967H207.233C207.11 20.5392 206.592 19.3861 205.679 18.5075C204.784 17.6106 203.66 17.1621 202.308 17.1621Z" fill="#1B1B1B"/>
<path d="M217.414 11.1767C216.606 11.1767 215.992 11.4055 215.57 11.8631C215.166 12.3207 214.964 12.9979 214.964 13.8948V15.5971H219.232V17.2445H215.017V30.0391H213.147V17.2445H210.671V15.5971H213.147V13.8125C213.147 12.4946 213.507 11.4512 214.227 10.6825C214.964 9.91368 216 9.5293 217.335 9.5293C217.862 9.5293 218.371 9.61167 218.863 9.7764C219.354 9.92284 219.767 10.1425 220.101 10.4354L219.469 11.8905C218.924 11.4146 218.239 11.1767 217.414 11.1767Z" fill="#1B1B1B"/>
<path d="M234.242 15.5971V30.0391H232.451V27.4033C231.959 28.2819 231.283 28.9683 230.423 29.4625C229.562 29.9384 228.579 30.1764 227.472 30.1764C225.664 30.1764 224.233 29.6547 223.179 28.6114C222.143 27.5497 221.625 26.003 221.625 23.9713V15.5971H223.495V23.7791C223.495 25.2983 223.855 26.4515 224.575 27.2385C225.295 28.0256 226.322 28.4192 227.657 28.4192C229.114 28.4192 230.265 27.9616 231.107 27.0463C231.95 26.1128 232.372 24.8224 232.372 23.175V15.5971H234.242Z" fill="#1B1B1B"/>
<path d="M246.539 15.4873C248.277 15.4873 249.656 16.0181 250.674 17.0798C251.71 18.1231 252.228 19.6515 252.228 21.6649V30.0391H250.358V21.8571C250.358 20.3562 249.998 19.2122 249.278 18.4251C248.558 17.638 247.531 17.2445 246.196 17.2445C244.704 17.2445 243.518 17.7112 242.64 18.6448C241.78 19.56 241.35 20.8321 241.35 22.4612V30.0391H239.48V15.5971H241.271V18.2604C241.78 17.3818 242.482 16.7045 243.378 16.2286C244.291 15.7344 245.345 15.4873 246.539 15.4873Z" fill="#1B1B1B"/>
<path d="M270 9.66658V30.0391H268.209V27.1836C267.647 28.1537 266.901 28.8951 265.97 29.4076C265.057 29.9201 264.021 30.1764 262.862 30.1764C261.563 30.1764 260.386 29.8652 259.332 29.2428C258.279 28.6205 257.453 27.7511 256.856 26.6345C256.259 25.518 255.961 24.2458 255.961 22.8181C255.961 21.3904 256.259 20.1182 256.856 19.0017C257.453 17.8851 258.279 17.0248 259.332 16.4208C260.386 15.7985 261.563 15.4873 262.862 15.4873C263.986 15.4873 264.996 15.7344 265.891 16.2286C266.804 16.7045 267.551 17.4092 268.13 18.3427V9.66658H270ZM263.02 28.4466C263.986 28.4466 264.855 28.2178 265.628 27.7602C266.418 27.2843 267.032 26.6162 267.471 25.7559C267.928 24.8956 268.156 23.9163 268.156 22.8181C268.156 21.7198 267.928 20.7406 267.471 19.8803C267.032 19.02 266.418 18.361 265.628 17.9034C264.855 17.4275 263.986 17.1896 263.02 17.1896C262.037 17.1896 261.15 17.4275 260.36 17.9034C259.587 18.361 258.972 19.02 258.516 19.8803C258.077 20.7406 257.857 21.7198 257.857 22.8181C257.857 23.9163 258.077 24.8956 258.516 25.7559C258.972 26.6162 259.587 27.2843 260.36 27.7602C261.15 28.2178 262.037 28.4466 263.02 28.4466Z" fill="#1B1B1B"/>
<path d="M0 39.6823L24.0802 0.0794707H30.1003L34.1989 9.72338L38.8428 0.0794707C38.8428 0.0794707 48.4458 0.000182561 53.384 0C53.87 -1.79648e-05 67.1837 6.7241 52.6038 16.9714L63.5294 39.7059H56.6192L46.3326 16.8286C46.3326 16.8286 58.2033 5.48053 45.759 6.03388H41.7362L37.0328 16.3945L46.9419 39.7059H39.7479L33.6297 23.5498L26.7165 39.7059H20.582L30.8641 16.2444L26.9469 5.89849L6.59368 39.6823H0Z" fill="#1B1B1B"/>
<rect opacity="0.2" width="4.76471" height="9.52941" transform="matrix(-0.911084 -0.412221 0.419035 -0.90797 38.1177 17.4707)" fill="url(#paint0_linear_744_939)"/>
<rect opacity="0.2" width="4.76471" height="9.52941" transform="matrix(0.884428 0.466677 -0.473934 0.880561 31.7646 15.8828)" fill="url(#paint1_linear_744_939)"/>
<path d="M0 39.6823L23.6265 0H29.5331L46.0588 39.7059H39.0003L26.4391 5.83216L6.46944 39.6823H0Z" fill="#1B1B1B"/>
<defs>
<linearGradient id="paint0_linear_744_939" x1="2.38235" y1="0" x2="2.38235" y2="9.52941" gradientUnits="userSpaceOnUse">
<stop stop-color="#1F398F"/>
<stop offset="1" stop-color="#203062" stop-opacity="0"/>
</linearGradient>
<linearGradient id="paint1_linear_744_939" x1="2.38235" y1="0" x2="2.38235" y2="9.52941" gradientUnits="userSpaceOnUse">
<stop stop-color="#1F398F"/>
<stop offset="1" stop-color="#203062" stop-opacity="0"/>
</linearGradient>
</defs>
</svg>
