<svg width="245" height="37" viewBox="0 0 245 37" fill="none" xmlns="http://www.w3.org/2000/svg">
<path d="M88.6146 22.0165H79.323L77.3218 26.4716H75.4873L83.1111 9.79455H84.8503L92.4741 26.4716H90.6158L88.6146 22.0165ZM87.9713 20.587L83.9688 11.629L79.9663 20.587H87.9713Z" fill="white"/>
<path d="M99.9529 26.5908C98.7141 26.5908 97.6023 26.3208 96.6175 25.7807C95.6486 25.2407 94.8863 24.4863 94.3304 23.5174C93.7745 22.5327 93.4965 21.4288 93.4965 20.2058C93.4965 18.9828 93.7745 17.8869 94.3304 16.9181C94.8863 15.9492 95.6486 15.1948 96.6175 14.6547C97.6023 14.1147 98.7141 13.8447 99.9529 13.8447C101.033 13.8447 101.994 14.0591 102.836 14.488C103.693 14.9009 104.368 15.5124 104.861 16.3224L103.598 17.1801C103.185 16.5607 102.661 16.1001 102.026 15.7983C101.39 15.4806 100.699 15.3218 99.9529 15.3218C99.0476 15.3218 98.2296 15.5283 97.499 15.9413C96.7843 16.3383 96.2204 16.9101 95.8075 17.6566C95.4104 18.4031 95.2119 19.2528 95.2119 20.2058C95.2119 21.1747 95.4104 22.0324 95.8075 22.7789C96.2204 23.5095 96.7843 24.0813 97.499 24.4942C98.2296 24.8913 99.0476 25.0898 99.9529 25.0898C100.699 25.0898 101.39 24.9389 102.026 24.6372C102.661 24.3354 103.185 23.8748 103.598 23.2553L104.861 24.113C104.368 24.9231 103.693 25.5425 102.836 25.9713C101.978 26.3843 101.017 26.5908 99.9529 26.5908Z" fill="white"/>
<path d="M114.923 25.7093C114.605 25.9952 114.208 26.2175 113.731 26.3763C113.271 26.5193 112.786 26.5908 112.278 26.5908C111.103 26.5908 110.197 26.2731 109.562 25.6378C108.927 25.0025 108.609 24.1051 108.609 22.9456V15.3695H106.37V13.94H108.609V11.2002H110.301V13.94H114.113V15.3695H110.301V22.8503C110.301 23.5968 110.483 24.1686 110.849 24.5657C111.23 24.9469 111.77 25.1375 112.469 25.1375C112.818 25.1375 113.152 25.0819 113.469 24.9707C113.803 24.8595 114.089 24.7007 114.327 24.4942L114.923 25.7093Z" fill="white"/>
<path d="M118.002 13.94H119.693V26.4716H118.002V13.94ZM118.86 11.2002C118.51 11.2002 118.216 11.0811 117.978 10.8428C117.74 10.6046 117.621 10.3187 117.621 9.98515C117.621 9.66749 117.74 9.38954 117.978 9.15129C118.216 8.91305 118.51 8.79393 118.86 8.79393C119.209 8.79393 119.503 8.91305 119.741 9.15129C119.979 9.37365 120.099 9.64366 120.099 9.96132C120.099 10.3107 119.979 10.6046 119.741 10.8428C119.503 11.0811 119.209 11.2002 118.86 11.2002Z" fill="white"/>
<path d="M129.522 26.5908C128.315 26.5908 127.227 26.3208 126.258 25.7807C125.29 25.2248 124.527 24.4625 123.971 23.4936C123.415 22.5247 123.137 21.4288 123.137 20.2058C123.137 18.9828 123.415 17.8869 123.971 16.9181C124.527 15.9492 125.29 15.1948 126.258 14.6547C127.227 14.1147 128.315 13.8447 129.522 13.8447C130.729 13.8447 131.817 14.1147 132.786 14.6547C133.755 15.1948 134.51 15.9492 135.05 16.9181C135.606 17.8869 135.883 18.9828 135.883 20.2058C135.883 21.4288 135.606 22.5247 135.05 23.4936C134.51 24.4625 133.755 25.2248 132.786 25.7807C131.817 26.3208 130.729 26.5908 129.522 26.5908ZM129.522 25.0898C130.412 25.0898 131.206 24.8913 131.905 24.4942C132.62 24.0813 133.175 23.5015 133.573 22.755C133.97 22.0085 134.168 21.1588 134.168 20.2058C134.168 19.2528 133.97 18.4031 133.573 17.6566C133.175 16.9101 132.62 16.3383 131.905 15.9413C131.206 15.5283 130.412 15.3218 129.522 15.3218C128.633 15.3218 127.831 15.5283 127.116 15.9413C126.417 16.3383 125.861 16.9101 125.448 17.6566C125.051 18.4031 124.853 19.2528 124.853 20.2058C124.853 21.1588 125.051 22.0085 125.448 22.755C125.861 23.5015 126.417 24.0813 127.116 24.4942C127.831 24.8913 128.633 25.0898 129.522 25.0898Z" fill="white"/>
<path d="M145.722 13.8447C147.294 13.8447 148.541 14.3053 149.462 15.2265C150.399 16.1318 150.868 17.4581 150.868 19.2052V26.4716H149.176V19.372C149.176 18.0696 148.851 17.0769 148.2 16.3939C147.548 15.7109 146.619 15.3695 145.412 15.3695C144.062 15.3695 142.99 15.7745 142.196 16.5845C141.418 17.3787 141.028 18.4825 141.028 19.8961V26.4716H139.337V13.94H140.957V16.251C141.418 15.4886 142.053 14.9009 142.863 14.488C143.689 14.0591 144.642 13.8447 145.722 13.8447Z" fill="white"/>
<path d="M173.441 26.4716L169.629 21.1112C169.2 21.1588 168.756 21.1826 168.295 21.1826H163.816V26.4716H162.053V9.79455H168.295C170.423 9.79455 172.091 10.3028 173.298 11.3193C174.505 12.3358 175.109 13.7335 175.109 15.5124C175.109 16.8148 174.775 17.9187 174.108 18.824C173.457 19.7135 172.52 20.3567 171.297 20.7538L175.371 26.4716H173.441ZM168.247 19.6817C169.899 19.6817 171.162 19.3164 172.035 18.5858C172.909 17.8551 173.346 16.8307 173.346 15.5124C173.346 14.1624 172.909 13.13 172.035 12.4152C171.162 11.6846 169.899 11.3193 168.247 11.3193H163.816V19.6817H168.247Z" fill="white"/>
<path d="M189.824 20.73H179.341C179.437 22.0324 179.937 23.0886 180.842 23.8986C181.748 24.6928 182.891 25.0898 184.273 25.0898C185.051 25.0898 185.766 24.9548 186.417 24.6848C187.068 24.3989 187.632 23.986 188.109 23.4459L189.062 24.5419C188.506 25.209 187.807 25.7172 186.965 26.0666C186.139 26.4161 185.226 26.5908 184.225 26.5908C182.939 26.5908 181.795 26.3208 180.795 25.7807C179.81 25.2248 179.039 24.4625 178.484 23.4936C177.928 22.5247 177.65 21.4288 177.65 20.2058C177.65 18.9828 177.912 17.8869 178.436 16.9181C178.976 15.9492 179.707 15.1948 180.628 14.6547C181.565 14.1147 182.613 13.8447 183.773 13.8447C184.932 13.8447 185.972 14.1147 186.894 14.6547C187.815 15.1948 188.537 15.9492 189.062 16.9181C189.586 17.871 189.848 18.967 189.848 20.2058L189.824 20.73ZM183.773 15.298C182.565 15.298 181.549 15.6871 180.723 16.4654C179.913 17.2278 179.452 18.2284 179.341 19.4673H188.228C188.117 18.2284 187.648 17.2278 186.822 16.4654C186.012 15.6871 184.996 15.298 183.773 15.298Z" fill="white"/>
<path d="M197.436 10.1043C196.706 10.1043 196.15 10.3028 195.769 10.6999C195.403 11.097 195.221 11.6846 195.221 12.4629V13.94H199.08V15.3695H195.268V26.4716H193.577V15.3695H191.337V13.94H193.577V12.3914C193.577 11.2478 193.902 10.3425 194.554 9.67543C195.221 9.00835 196.158 8.6748 197.365 8.6748C197.841 8.6748 198.302 8.74628 198.747 8.88922C199.191 9.01629 199.565 9.20688 199.866 9.46101L199.295 10.7237C198.802 10.3107 198.183 10.1043 197.436 10.1043Z" fill="white"/>
<path d="M212.657 13.94V26.4716H211.037V24.1845C210.592 24.9469 209.981 25.5425 209.202 25.9713C208.424 26.3843 207.535 26.5908 206.534 26.5908C204.898 26.5908 203.604 26.1381 202.651 25.2328C201.714 24.3116 201.245 22.9695 201.245 21.2064V13.94H202.937V21.0397C202.937 22.358 203.262 23.3586 203.913 24.0416C204.565 24.7245 205.494 25.066 206.701 25.066C208.019 25.066 209.059 24.6689 209.822 23.8748C210.584 23.0648 210.965 21.945 210.965 20.5155V13.94H212.657Z" fill="white"/>
<path d="M223.779 13.8447C225.352 13.8447 226.599 14.3053 227.52 15.2265C228.457 16.1318 228.925 17.4581 228.925 19.2052V26.4716H227.234V19.372C227.234 18.0696 226.908 17.0769 226.257 16.3939C225.606 15.7109 224.677 15.3695 223.47 15.3695C222.12 15.3695 221.048 15.7745 220.253 16.5845C219.475 17.3787 219.086 18.4825 219.086 19.8961V26.4716H217.394V13.94H219.014V16.251C219.475 15.4886 220.11 14.9009 220.92 14.488C221.746 14.0591 222.699 13.8447 223.779 13.8447Z" fill="white"/>
<path d="M245 8.79393V26.4716H243.38V23.9939C242.872 24.8357 242.197 25.479 241.355 25.9237C240.529 26.3684 239.592 26.5908 238.544 26.5908C237.368 26.5908 236.304 26.3208 235.351 25.7807C234.398 25.2407 233.652 24.4863 233.112 23.5174C232.572 22.5486 232.302 21.4447 232.302 20.2058C232.302 18.967 232.572 17.8631 233.112 16.8942C233.652 15.9254 234.398 15.1789 235.351 14.6547C236.304 14.1147 237.368 13.8447 238.544 13.8447C239.56 13.8447 240.473 14.0591 241.283 14.488C242.109 14.9009 242.784 15.5124 243.309 16.3224V8.79393H245ZM238.687 25.0898C239.56 25.0898 240.346 24.8913 241.045 24.4942C241.76 24.0813 242.316 23.5015 242.713 22.755C243.126 22.0085 243.332 21.1588 243.332 20.2058C243.332 19.2528 243.126 18.4031 242.713 17.6566C242.316 16.9101 241.76 16.3383 241.045 15.9413C240.346 15.5283 239.56 15.3218 238.687 15.3218C237.797 15.3218 236.995 15.5283 236.28 15.9413C235.581 16.3383 235.026 16.9101 234.613 17.6566C234.216 18.4031 234.017 19.2528 234.017 20.2058C234.017 21.1588 234.216 22.0085 234.613 22.755C235.026 23.5015 235.581 24.0813 236.28 24.4942C236.995 24.8913 237.797 25.0898 238.687 25.0898Z" fill="white"/>
<path d="M0 36.3768L21.8606 0.0728508H27.3258L31.0466 8.91343L35.2625 0.0728508C35.2625 0.0728508 43.9803 0.000167354 48.4633 0C48.9045 -1.64684e-05 60.991 6.16399 47.755 15.5577L57.6735 36.3984H51.4003L42.0619 15.4268C42.0619 15.4268 52.8384 5.02401 41.5411 5.53127H37.8892L33.6193 15.0289L42.615 36.3984H36.0841L30.5299 21.5881L24.2539 36.3984H18.6849L28.0192 14.8912L24.463 5.40715L5.98591 36.3768H0Z" fill="white"/>
<rect opacity="0.2" width="4.82576" height="8.60326" transform="matrix(-0.909539 -0.415619 0.415621 -0.909538 33.8071 15.1855)" fill="url(#paint0_linear_744_994)"/>
<rect opacity="0.2" x="28.6885" y="14.335" width="4.85258" height="8.60326" transform="rotate(28.0537 28.6885 14.335)" fill="url(#paint1_linear_744_994)"/>
<path d="M0 36.3821L21.8606 0.078125H27.3258L42.6164 36.4037H36.0854L24.463 5.41377L5.98591 36.3821H0Z" fill="white"/>
<defs>
<linearGradient id="paint0_linear_744_994" x1="2.41288" y1="0" x2="2.41288" y2="8.60326" gradientUnits="userSpaceOnUse">
<stop stop-color="#1F398F"/>
<stop offset="1" stop-color="#203062" stop-opacity="0"/>
</linearGradient>
<linearGradient id="paint1_linear_744_994" x1="31.1148" y1="14.335" x2="31.1148" y2="22.9382" gradientUnits="userSpaceOnUse">
<stop stop-color="#1F398F"/>
<stop offset="1" stop-color="#203062" stop-opacity="0"/>
</linearGradient>
</defs>
</svg>
