<svg width="132" height="74" viewBox="0 0 135 74" fill="none" xmlns="http://www.w3.org/2000/svg">
<path d="M58 25.9806C58 29.0625 55.6649 30.9611 51.8969 30.9611H48.6598V35H46V21H51.8969C55.6649 21 58 22.8784 58 25.9806ZM55.3196 25.9806C55.3196 24.218 54.1133 23.2007 51.7784 23.2007H48.6649V28.7605H51.7784C54.1082 28.7605 55.3196 27.7381 55.3196 25.9806Z" fill="#2D3436"/>
<path d="M69.1907 34.995L66.3209 30.8971C66.139 30.9173 65.9621 30.9173 65.7802 30.9173H62.6072V34.995H60V21H65.7802C69.4737 21 71.7625 22.8777 71.7625 25.9788C71.7625 28.0981 70.6812 29.6587 68.7713 30.3988L72 35H69.1907V34.995ZM65.6589 23.1999H62.6072V28.7777H65.6589C67.9478 28.7777 69.1301 27.7357 69.1301 25.9788C69.1301 24.2219 67.9427 23.1999 65.6589 23.1999Z" fill="#2D3436"/>
<path d="M74 28.5C74 24.1888 77.3935 21 82 21C86.6066 21 90 24.1678 90 28.5C90 32.8321 86.6066 36 82 36C77.3935 36 74 32.8112 74 28.5ZM87.2212 28.5C87.2212 25.521 84.9927 23.3759 82 23.3759C79.0074 23.3759 76.7789 25.521 76.7789 28.5C76.7789 31.479 79.0074 33.6241 82 33.6241C84.9927 33.6241 87.2212 31.479 87.2212 28.5Z" fill="#2D3436"/>
<path d="M95.7961 23.1806V27.441H103.073V29.6417H95.7961V35H93V21H104V23.1806H95.7961Z" fill="#2D3436"/>
<path d="M106 21H109V35H106V21Z" fill="#2D3436"/>
<path d="M115.685 23.2007H111V21H123V23.2007H118.315V35H115.69V23.2007H115.685Z" fill="#2D3436"/>
<path d="M123 34.2476L123.968 32.1437C125.168 33.0829 127.083 33.7492 128.927 33.7492C131.268 33.7492 132.259 32.9359 132.259 31.8552C132.259 28.7072 123.324 30.7691 123.324 25.3547C123.324 22.9989 125.255 21 129.381 21C131.188 21 133.074 21.4565 134.384 22.2907L133.502 24.3945C132.15 23.6233 130.669 23.2508 129.354 23.2508C127.034 23.2508 126.087 24.127 126.087 25.2287C126.087 28.3348 135 26.3148 135 31.6663C135 34.001 133.048 36 128.921 36C126.585 36 124.243 35.2917 123 34.2476Z" fill="#2D3436"/>
<path d="M48.9959 39.9213H44V39H55V39.9213H50.0092V53H48.9959V39.9213Z" fill="#868686"/>
<path d="M72.8242 52.995L69.4492 48.3166C69.0064 48.3769 68.5585 48.4173 68.0749 48.4173H64.0333V53H63V39H68.0749C71.633 39 73.776 40.7626 73.776 43.7186C73.776 45.9396 72.5645 47.4806 70.4623 48.1L74 53H72.8242V52.995ZM68.0749 47.5158C71.1087 47.5158 72.7223 46.1158 72.7223 43.7137C72.7223 41.2914 71.1036 39.9115 68.0749 39.9115H64.0333V47.5108H68.0749V47.5158Z" fill="#868686"/>
<path d="M91.0793 49.0618H82.9004L81.1054 53H80L86.4854 39H87.5147L94 53H92.8946L91.0793 49.0618ZM90.6939 48.2007L86.9873 40.118L83.301 48.2007H90.6939Z" fill="#868686"/>
<path d="M103 39H108.547C112.995 39 116 41.9209 116 46C116 50.0791 112.995 53 108.547 53H103V39ZM108.471 52.0784C112.435 52.0784 114.981 49.5604 114.981 46C114.981 42.4396 112.44 39.9216 108.471 39.9216H104.023V52.0835H108.471V52.0784Z" fill="#868686"/>
<path d="M135 52.0784V53H125V39H134.692V39.9216H126.059V45.441H133.785V46.3424H126.059V52.0835H135V52.0784Z" fill="#868686"/>
<path d="M19.1242 17C19.3988 17.051 19.6787 17.102 20 17.1581C20 19.1627 20 21.1878 20 23.2689C17.9891 23.2689 15.9834 23.2689 13.8792 23.2689C13.8792 23.5494 13.8792 23.7739 13.8792 23.9983C13.8792 26.7273 13.874 29.451 13.8845 32.18C13.8845 32.5626 13.8378 32.787 13.361 32.8941C10.2981 33.5725 7.88288 35.1283 6.41099 37.9031C6.39544 37.9337 6.34362 37.9439 6.25033 38C6.25033 33.1033 6.25033 28.2422 6.25033 23.3199C5.96009 23.3046 5.72688 23.2842 5.49365 23.2842C3.89738 23.2842 0 19.0709 0 17C6.37471 17 12.7494 17 19.1242 17Z" fill="#868686"/>
<path d="M6.07783 56C6.03632 55.9224 6 55.8861 6 55.8499C6.03113 51.734 6.02075 47.6129 6.12971 43.4971C6.16084 42.3633 6.4514 41.2036 6.79903 40.1113C7.899 36.6374 10.4361 34.7218 14.0058 34.1524C15.6766 33.8831 17.3991 33.9039 19.0958 33.7847C20.3099 33.7019 21.5344 33.6916 22.733 33.5C25.5503 33.0392 27.2677 30.9839 27.1639 28.3331C27.0602 25.61 25.2182 23.7152 22.3697 23.3942C21.9754 23.3476 21.5811 23.3165 21.0675 23.2647C21.0675 22.2189 21.0675 21.1783 21.0675 20.1429C21.0675 19.1178 21.0675 18.0979 21.0675 17.1091C21.1505 17.047 21.1868 16.9952 21.2179 17.0004C23.3504 17.1764 25.5451 17.1143 27.6049 17.5854C31.5742 18.4966 34.542 22.1672 34.8948 26.3037C35.0245 27.8103 35.0661 29.3687 34.8325 30.8545C34.0336 35.9437 30.1733 39.3813 24.8291 39.842C22.8471 40.0129 20.8496 40.0233 18.8624 40.1268C18.0269 40.1734 17.1812 40.22 16.3563 40.3701C15.0228 40.6186 14.1771 41.4625 13.9384 42.762C13.7464 43.8078 13.6583 44.8794 13.6479 45.9408C13.6167 49.0419 8.55275 56 6.07783 56Z" fill="#2D3436"/>
<path d="M40 17H39V56H40V17Z" fill="#DEE5E8"/>
</svg>
