<svg width="47" height="31" viewBox="0 0 47 31" fill="none" xmlns="http://www.w3.org/2000/svg">
<path fill-rule="evenodd" clip-rule="evenodd" d="M0 1.93555C0 1.10712 0.601218 0.435547 1.34286 0.435547H45.6571C46.3988 0.435547 47 1.10712 47 1.93555C47 2.76397 46.3988 3.43555 45.6571 3.43555H1.34286C0.601218 3.43555 0 2.76397 0 1.93555ZM0 15.2402C0 14.4118 0.809331 13.7402 1.80769 13.7402L45.1923 13.7402C46.1907 13.7402 47 14.4118 47 15.2402C47 16.0687 46.1907 16.7402 45.1923 16.7402L1.80769 16.7402C0.809332 16.7402 0 16.0687 0 15.2402ZM1.80769 27.0449C0.809331 27.0449 0 27.7165 0 28.5449C0 29.3733 0.809332 30.0449 1.80769 30.0449L45.1923 30.0449C46.1907 30.0449 47 29.3733 47 28.5449C47 27.7165 46.1907 27.0449 45.1923 27.0449L1.80769 27.0449Z" fill="#313131"/>
</svg>
