<svg width="15" height="28" viewBox="0 0 15 28" fill="none" xmlns="http://www.w3.org/2000/svg">
<path d="M10.8938 4.58853H14.3339C14.6504 4.58853 14.9073 4.33157 14.9073 4.01496V0.573566C14.9073 0.256958 14.6504 0 14.3339 0H10.8938C7.41694 0 4.58685 2.82998 4.58685 6.30923V10.3242H0.573357C0.256864 10.3242 0 10.5812 0 10.8978V14.3392C0 14.6558 0.256864 14.9127 0.573357 14.9127H4.58685V26.9576C4.58685 27.2742 4.84372 27.5312 5.16021 27.5312H8.60035C8.91685 27.5312 9.17371 27.2742 9.17371 26.9576V14.9127H13.1872C13.4338 14.9127 13.6528 14.7544 13.7319 14.5204L14.8786 11.079C14.9371 10.9046 14.9073 10.7119 14.7995 10.5617C14.6905 10.4125 14.5185 10.3242 14.3339 10.3242H9.17371V6.30923C9.17371 5.36055 9.94545 4.58853 10.8938 4.58853Z" fill="white"/>
</svg>
