<svg width="12" height="22" viewBox="0 0 12 22" fill="none" xmlns="http://www.w3.org/2000/svg">
<path d="M8.51965 3.58853H11.2101C11.4576 3.58853 11.6585 3.38758 11.6585 3.13997V0.448567C11.6585 0.200958 11.4576 0 11.2101 0H8.51965C5.80054 0 3.58722 2.21323 3.58722 4.93423V8.0742H0.448403C0.200884 8.0742 0 8.27516 0 8.52277V11.2142C0 11.4618 0.200884 11.6627 0.448403 11.6627H3.58722V21.0826C3.58722 21.3302 3.78811 21.5312 4.03562 21.5312H6.72604C6.97356 21.5312 7.17444 21.3302 7.17444 21.0826V11.6627H10.3133C10.5061 11.6627 10.6774 11.5389 10.7392 11.3559L11.6361 8.66451C11.6818 8.52815 11.6585 8.37743 11.5742 8.25991C11.489 8.14328 11.3545 8.0742 11.2101 8.0742H7.17444V4.93423C7.17444 4.1923 7.77799 3.58853 8.51965 3.58853Z" fill="white"/>
</svg>
