<svg width="215" height="74" viewBox="0 0 216 74" fill="none" xmlns="http://www.w3.org/2000/svg">
<g clip-path="url(#clip0_744_951)">
<path d="M19.8999 56C30.6695 56 39.3999 47.2696 39.3999 36.5C39.3999 25.7304 30.6695 17 19.8999 17C9.13035 17 0.399902 25.7304 0.399902 36.5C0.399902 47.2696 9.13035 56 19.8999 56Z" fill="#C1C1C1"/>
<path d="M30.1612 25.6559C30.358 25.8579 30.4331 26.1376 30.3865 26.3989L30.3609 29.6947C30.3605 30.1572 29.9957 30.5324 29.5461 30.5329C29.1229 30.5333 28.7754 30.2015 28.7364 29.7769L28.7327 29.6962L28.7432 28.2941L9.79094 47.755C9.47273 48.0817 8.95681 48.0817 8.63858 47.7549C8.34025 47.4486 8.32159 46.9639 8.58261 46.6352L8.63854 46.5717L27.5829 27.1173L26.2471 27.1306C25.824 27.1378 25.4704 26.8117 25.4234 26.3877L25.4182 26.3071C25.4104 25.8719 25.7269 25.5087 26.1389 25.4611L26.2172 25.456L29.4401 25.424C29.6938 25.3772 29.9651 25.4545 30.1612 25.6559ZM29.4252 40.3777L29.4448 40.3778C29.8763 40.3917 30.226 40.7522 30.234 41.2009C30.2345 41.2296 30.2336 41.2579 30.2314 41.2859L30.2048 44.6658C30.2044 45.1283 29.8396 45.5036 29.39 45.504C28.9668 45.5044 28.6193 45.1726 28.5803 44.748L28.5766 44.6673L28.5875 43.2368L24.2228 47.7117C23.9071 48.0353 23.3994 48.0312 23.0886 47.7025C22.7986 47.3957 22.7828 46.9147 23.0385 46.5888L23.0975 46.5215L27.4376 42.0713L26.0889 42.0846C25.6659 42.0918 25.3122 41.7656 25.2652 41.3416L25.26 41.2611C25.2518 40.7986 25.6095 40.4175 26.059 40.4099L29.4051 40.3774C29.4092 40.3774 29.4133 40.3773 29.4174 40.3773L29.4252 40.3777ZM29.9894 33.284C30.2808 33.5927 30.2967 34.0769 30.0397 34.4048L29.9804 34.4726L17.0894 47.7102C16.7723 48.0359 16.2622 48.0317 15.95 47.7009C15.6587 47.3921 15.6428 46.908 15.8998 46.58L15.959 46.5123L28.85 33.2746C29.1671 32.949 29.6773 32.9532 29.9894 33.284ZM22.8498 25.7099C23.1411 26.0187 23.157 26.5028 22.9 26.8307L22.8408 26.8985L9.94977 40.1362C9.63266 40.4618 9.12254 40.4576 8.81039 40.1268C8.51905 39.818 8.50312 39.3339 8.76011 39.006L8.81936 38.9382L21.7104 25.7005C22.0275 25.3749 22.5376 25.3791 22.8498 25.7099ZM15.7112 25.2493L15.7237 25.2633L15.7278 25.2683L15.7424 25.2851L15.7703 25.3191C15.824 25.3873 15.8672 25.4651 15.8976 25.5493C15.8984 25.5523 15.8994 25.5551 15.9004 25.5579C15.908 25.579 15.9146 25.6008 15.9204 25.623C15.925 25.639 15.9289 25.6552 15.9323 25.6715C15.9328 25.6781 15.9341 25.6847 15.9352 25.6914C15.9444 25.7366 15.9491 25.7834 15.9499 25.8311L15.9472 25.8876L15.9212 29.2831C15.9208 29.7184 15.5976 30.0764 15.1847 30.1174L15.1063 30.1213C14.6832 30.1217 14.3357 29.79 14.2966 29.3653L14.293 29.2847L14.3038 27.865L9.94347 32.3341C9.62784 32.6577 9.12007 32.6535 8.80935 32.3248C8.51933 32.018 8.50346 31.537 8.75926 31.2111L8.81823 31.1438L13.151 26.7014L11.8049 26.7147C11.3818 26.7219 11.0281 26.3957 10.9811 25.9718L10.976 25.8912C10.9682 25.456 11.2846 25.0928 11.6966 25.0452L11.7749 25.0401L15.0334 25.0073C15.2746 24.9739 15.5273 25.0548 15.7112 25.2493ZM15.7413 25.2833C15.7499 25.2928 15.7562 25.3004 15.7624 25.3081L15.7424 25.2851L15.7413 25.2833Z" fill="white"/>
<path d="M53.3015 45.952C57.2376 45.952 59.5893 43.5783 59.5893 40.4612C59.5893 36.9365 57.5099 35.2102 54.0689 35.2102C53.4747 35.2102 52.5588 35.33 52.0884 35.4979L52.336 31.8293H58.7476V29.2638H49.7367L49.0931 38.567C49.8852 38.1834 51.4943 37.6559 52.5093 37.6559C54.762 37.6559 55.975 38.4711 55.975 40.4133C55.975 42.2595 54.6135 43.2186 52.3608 43.2186C51.0982 43.2186 49.9595 42.787 48.994 42.3075L48.3999 44.8491C49.5386 45.4725 51.3458 45.952 53.3015 45.952ZM68.427 46C72.066 46 75.2594 43.842 75.2594 37.9196V37.0804C75.2594 31.2299 72.1155 29 68.4765 29C64.9117 29 61.6192 31.1819 61.6192 37.1523V38.0155C61.6192 43.6982 64.6146 46 68.427 46ZM68.427 43.4584C66.295 43.4584 65.3274 41.6962 65.3081 38.0556L65.3078 36.9126C65.3078 33.1721 66.3228 31.5416 68.4517 31.5416C70.5349 31.5416 71.599 33.2336 71.6201 36.9666L71.6204 38.1114C71.6204 41.9478 70.5807 43.4584 68.427 43.4584ZM84.5674 46C88.2065 46 91.3999 43.842 91.3999 37.9196V37.0804C91.3999 31.2299 88.256 29 84.6169 29C81.0522 29 77.7597 31.1819 77.7597 37.1523V38.0155C77.7597 43.6982 80.7551 46 84.5674 46ZM84.5674 43.4584C82.4355 43.4584 81.4679 41.6962 81.4486 38.0556L81.4483 36.9126C81.4483 33.1721 82.4632 31.5416 84.5922 31.5416C86.6753 31.5416 87.7395 33.2336 87.7606 36.9666L87.7609 38.1114C87.7609 41.9478 86.7211 43.4584 84.5674 43.4584Z" fill="#333333"/>
<path d="M94.3999 46.7997H95.9949V30H94.3999V46.7997ZM99.9702 46.7997H101.516V36.6348C102.596 36.0088 103.97 35.5832 105.221 35.5832C107.185 35.5832 107.823 36.2342 107.823 37.8866V46.7997H109.368V37.5361C109.368 35.1826 108.191 34.2312 105.884 34.2312C104.363 34.2312 102.743 34.757 101.541 35.5582H101.442V34.4566H99.9702V46.7997ZM116.239 46.7997H117.785L122.325 34.4315H120.779L117.074 44.7467H117.025L113.344 34.4315H111.675L116.239 46.7997ZM129.637 47C131.551 47 132.901 46.4492 133.637 45.9485V44.7467C132.631 45.2725 131.502 45.648 129.883 45.648C127.036 45.648 125.564 44.271 125.515 40.891H134.005V39.9897C134.005 36.2342 132.484 34.2312 129.196 34.2312C126.374 34.2312 123.92 36.1591 123.92 40.4654V40.7658C123.92 44.6966 125.834 47 129.637 47ZM129.147 35.5081C131.331 35.5081 132.386 36.81 132.386 39.6392H125.539C125.736 36.5847 127.404 35.5081 129.147 35.5081ZM139.845 46.975C142.545 46.975 144.066 45.648 144.066 43.4698C144.066 41.3166 143.06 40.5655 140.827 39.9146L139.526 39.5641L139.374 39.5164C138.087 39.1004 137.563 38.5941 137.563 37.461C137.563 36.2342 138.447 35.5582 140.214 35.5582C141.49 35.5582 142.692 35.8837 143.379 36.2342V34.9573C142.716 34.6068 141.71 34.2312 140.14 34.2312C137.416 34.2312 136.091 35.6082 136.091 37.5862C136.091 39.6392 137.22 40.4654 139.036 40.9411L140.263 41.3166L140.426 41.3628C141.948 41.8038 142.52 42.3372 142.52 43.595C142.52 44.8218 141.735 45.648 139.674 45.648C137.931 45.648 136.999 45.2725 135.993 44.8468V46.0987C136.925 46.6244 138.25 46.975 139.845 46.975ZM150.593 46.9249C151.575 46.9249 152.139 46.6996 152.556 46.4492V45.3976C152.115 45.5479 151.501 45.648 150.986 45.648C149.514 45.648 149.121 45.1222 149.121 43.8954V35.7835H152.336V34.4566H149.121V31.5272H147.575V34.4566H145.808V35.7835H147.575V44.1208C147.575 46.1237 148.728 46.9249 150.593 46.9249ZM155.231 46.7997H156.777V36.6348C157.857 35.9838 159.01 35.5832 160.163 35.5832C161.808 35.5832 162.47 36.2342 162.47 37.8866V46.7997H164.016V37.5361C164.016 37.2106 163.991 36.9352 163.942 36.6348C165.169 35.9337 166.323 35.5832 167.353 35.5832C168.997 35.5832 169.734 36.2342 169.734 37.8866V46.7997H171.255V37.5361C171.255 35.1826 170.003 34.2312 167.918 34.2312C166.568 34.2312 165.145 34.6819 163.697 35.6082H163.599C163.084 34.6819 162.102 34.2312 160.728 34.2312C159.378 34.2312 157.98 34.782 156.802 35.5582H156.703V34.4566H155.231V46.7997ZM179.696 47C181.61 47 182.96 46.4492 183.696 45.9485V44.7467C182.69 45.2725 181.561 45.648 179.942 45.648C177.095 45.648 175.623 44.271 175.574 40.891H184.064V39.9897C184.064 36.2342 182.543 34.2312 179.255 34.2312C176.433 34.2312 173.979 36.1591 173.979 40.4654V40.7658C173.979 44.6966 175.893 47 179.696 47ZM179.205 35.5081C181.389 35.5081 182.445 36.81 182.445 39.6392H175.598C175.795 36.5847 177.463 35.5081 179.205 35.5081ZM186.886 46.7997H188.432V36.6348C189.512 36.0088 190.886 35.5832 192.137 35.5832C194.1 35.5832 194.738 36.2342 194.738 37.8866V46.7997H196.284V37.5361C196.284 35.1826 195.106 34.2312 192.8 34.2312C191.278 34.2312 189.659 34.757 188.456 35.5582H188.358V34.4566H186.886V46.7997ZM203.523 46.9249C204.505 46.9249 205.069 46.6996 205.486 46.4492V45.3976C205.045 45.5479 204.431 45.648 203.916 45.648C202.444 45.648 202.051 45.1222 202.051 43.8954V35.7835H205.265V34.4566H202.051V31.5272H200.505V34.4566H198.738V35.7835H200.505V44.1208C200.505 46.1237 201.658 46.9249 203.523 46.9249ZM211.179 46.975C209.584 46.975 208.259 46.6244 207.327 46.0987V44.8468L207.62 44.9697C208.522 45.3422 209.435 45.648 211.007 45.648C213.069 45.648 213.854 44.8218 213.854 43.595C213.854 42.2931 213.241 41.7673 211.596 41.3166L210.369 40.9411L210.211 40.8982C208.488 40.4157 207.425 39.5788 207.425 37.5862C207.425 35.6082 208.75 34.2312 211.474 34.2312C213.044 34.2312 214.05 34.6068 214.713 34.9573V36.2342C214.026 35.8837 212.823 35.5582 211.547 35.5582C209.781 35.5582 208.897 36.2342 208.897 37.461C208.897 38.6377 209.462 39.1384 210.86 39.5641L212.161 39.9146L212.339 39.9676C214.447 40.6072 215.4 41.3748 215.4 43.4698C215.4 45.648 213.879 46.975 211.179 46.975Z" fill="#333333"/>
</g>
<defs>
<clipPath id="clip0_744_951">
<rect width="215" height="74" fill="white" transform="translate(0.399902)"/>
</clipPath>
</defs>
</svg>
