<svg width="26" height="26" viewBox="0 0 26 26" fill="none" xmlns="http://www.w3.org/2000/svg">
<path d="M18.6931 2.08746C20.0761 2.09159 21.4013 2.64283 22.3792 3.62078C23.3572 4.59873 23.9084 5.92393 23.9126 7.30696V17.7448C23.9084 19.1279 23.3572 20.4531 22.3792 21.431C21.4013 22.409 20.0761 22.9602 18.6931 22.9643H8.2552C6.87217 22.9602 5.54697 22.409 4.56902 21.431C3.59107 20.4531 3.03983 19.1279 3.0357 17.7448V7.30696C3.03983 5.92393 3.59107 4.59873 4.56902 3.62078C5.54697 2.64283 6.87217 2.09159 8.2552 2.08746H18.6931ZM18.6931 0H8.2552C4.23629 0 0.948242 3.28805 0.948242 7.30696V17.7448C0.948242 21.7637 4.23629 25.0518 8.2552 25.0518H18.6931C22.712 25.0518 26 21.7637 26 17.7448V7.30696C26 3.28805 22.712 0 18.6931 0Z" fill="white"/>
<path d="M20.2588 7.30695C19.9491 7.30695 19.6464 7.21512 19.3889 7.04308C19.1314 6.87103 18.9308 6.6265 18.8123 6.3404C18.6937 6.0543 18.6627 5.73948 18.7232 5.43576C18.7836 5.13203 18.9327 4.85305 19.1517 4.63407C19.3706 4.4151 19.6496 4.26598 19.9533 4.20557C20.2571 4.14515 20.5719 4.17616 20.858 4.29466C21.1441 4.41317 21.3886 4.61386 21.5607 4.87134C21.7327 5.12882 21.8245 5.43154 21.8245 5.74122C21.825 5.94696 21.7848 6.15076 21.7063 6.34092C21.6277 6.53108 21.5124 6.70387 21.3669 6.84935C21.2215 6.99483 21.0487 7.11014 20.8585 7.18867C20.6683 7.2672 20.4645 7.30739 20.2588 7.30695ZM13.4741 8.3504C14.3 8.3504 15.1073 8.59529 15.7939 9.0541C16.4806 9.51291 17.0157 10.165 17.3318 10.928C17.6478 11.691 17.7305 12.5305 17.5694 13.3405C17.4083 14.1504 17.0106 14.8944 16.4266 15.4784C15.8427 16.0624 15.0987 16.46 14.2887 16.6211C13.4788 16.7823 12.6392 16.6996 11.8762 16.3835C11.1133 16.0675 10.4612 15.5323 10.0023 14.8457C9.54354 14.159 9.29865 13.3517 9.29865 12.5259C9.29984 11.4188 9.74013 10.3575 10.5229 9.57468C11.3057 8.79188 12.3671 8.35159 13.4741 8.3504ZM13.4741 6.26294C12.2354 6.26294 11.0246 6.63026 9.99463 7.31844C8.96469 8.00662 8.16196 8.98476 7.68793 10.1292C7.2139 11.2736 7.08987 12.5328 7.33153 13.7477C7.57319 14.9626 8.16968 16.0786 9.04557 16.9545C9.92145 17.8303 11.0374 18.4268 12.2523 18.6685C13.4672 18.9102 14.7265 18.7861 15.8709 18.3121C17.0153 17.8381 17.9934 17.0353 18.6816 16.0054C19.3698 14.9755 19.7371 13.7646 19.7371 12.5259C19.7371 10.8649 19.0772 9.27185 17.9027 8.09732C16.7282 6.92279 15.1352 6.26294 13.4741 6.26294Z" fill="white"/>
</svg>
