<svg width="19" height="21" viewBox="0 0 19 21" fill="none" xmlns="http://www.w3.org/2000/svg">
<path d="M13.4582 2.43214C14.5071 2.43544 15.5122 2.87552 16.2539 3.65626C16.9956 4.437 17.4137 5.49497 17.4168 6.59911V14.9321C17.4137 16.0363 16.9956 17.0942 16.2539 17.875C15.5122 18.6557 14.5071 19.0958 13.4582 19.0991H5.54181C4.49288 19.0958 3.48781 18.6557 2.7461 17.875C2.0044 17.0942 1.58632 16.0363 1.58319 14.9321V6.59911C1.58632 5.49497 2.0044 4.437 2.7461 3.65626C3.48781 2.87552 4.49288 2.43544 5.54181 2.43214H13.4582ZM13.4582 0.765625H5.54181C2.49375 0.765625 0 3.39062 0 6.59911V14.9321C0 18.1406 2.49375 20.7656 5.54181 20.7656H13.4582C16.5062 20.7656 19 18.1406 19 14.9321V6.59911C19 3.39062 16.5062 0.765625 13.4582 0.765625Z" fill="white"/>
<path d="M14.6457 6.5991C14.4108 6.5991 14.1812 6.52579 13.986 6.38844C13.7907 6.25109 13.6385 6.05587 13.5486 5.82746C13.4587 5.59905 13.4352 5.34772 13.481 5.10524C13.5268 4.86277 13.6399 4.64004 13.806 4.46522C13.9721 4.29041 14.1837 4.17135 14.414 4.12312C14.6444 4.07489 14.8831 4.09965 15.1001 4.19425C15.3171 4.28886 15.5026 4.44908 15.6331 4.65464C15.7635 4.8602 15.8332 5.10188 15.8332 5.3491C15.8335 5.51336 15.803 5.67606 15.7435 5.82788C15.6839 5.97969 15.5965 6.11763 15.4861 6.23378C15.3758 6.34992 15.2448 6.44198 15.1005 6.50467C14.9563 6.56737 14.8017 6.59946 14.6457 6.5991ZM9.5 7.43214C10.1263 7.43214 10.7386 7.62765 11.2594 7.99393C11.7802 8.36022 12.1861 8.88084 12.4258 9.48995C12.6654 10.0991 12.7282 10.7693 12.606 11.416C12.4838 12.0626 12.1822 12.6566 11.7393 13.1227C11.2964 13.5889 10.7321 13.9064 10.1178 14.0351C9.50351 14.1637 8.86678 14.0977 8.28812 13.8454C7.70946 13.5931 7.21487 13.1658 6.8669 12.6176C6.51892 12.0694 6.33319 11.4249 6.33319 10.7656C6.33409 9.88182 6.66803 9.03448 7.26172 8.40954C7.85542 7.78459 8.66039 7.43308 9.5 7.43214ZM9.5 5.76562C8.56054 5.76562 7.64218 6.05887 6.86104 6.60827C6.07991 7.15768 5.47109 7.93857 5.11157 8.8522C4.75206 9.76583 4.65799 10.7712 4.84127 11.7411C5.02455 12.711 5.47695 13.6019 6.14124 14.3012C6.80554 15.0004 7.65191 15.4766 8.57332 15.6695C9.49473 15.8625 10.4498 15.7635 11.3177 15.385C12.1857 15.0066 12.9275 14.3657 13.4495 13.5435C13.9714 12.7212 14.25 11.7545 14.25 10.7656C14.25 9.43954 13.7496 8.16777 12.8588 7.23009C11.968 6.29241 10.7598 5.76562 9.5 5.76562Z" fill="white"/>
</svg>
