<svg width="134" height="21" viewBox="0 0 134 21" fill="none" xmlns="http://www.w3.org/2000/svg">
<path d="M48.1912 13.0055H43.093L41.9949 15.6865H40.9883L45.1715 5.65042H46.1258L50.309 15.6865H49.2893L48.1912 13.0055ZM47.8383 12.1452L45.6421 6.75439L43.4459 12.1452H47.8383Z" fill="#1B1B1B"/>
<path d="M54.4126 15.7582C53.7329 15.7582 53.1228 15.5957 52.5825 15.2708C52.0509 14.9458 51.6326 14.4918 51.3275 13.9087C51.0225 13.3161 50.87 12.6518 50.87 11.9158C50.87 11.1798 51.0225 10.5203 51.3275 9.93728C51.6326 9.35423 52.0509 8.90021 52.5825 8.57523C53.1228 8.25025 53.7329 8.08776 54.4126 8.08776C55.0053 8.08776 55.5325 8.2168 55.9944 8.47487C56.465 8.72338 56.8354 9.09138 57.1056 9.57884L56.4127 10.095C56.1861 9.72222 55.8986 9.44503 55.55 9.26342C55.2014 9.07226 54.8222 8.97668 54.4126 8.97668C53.9159 8.97668 53.4671 9.10093 53.0662 9.34945C52.674 9.5884 52.3646 9.9325 52.138 10.3817C51.9201 10.831 51.8112 11.3423 51.8112 11.9158C51.8112 12.4989 51.9201 13.015 52.138 13.4643C52.3646 13.9039 52.674 14.248 53.0662 14.4965C53.4671 14.7355 53.9159 14.855 54.4126 14.855C54.8222 14.855 55.2014 14.7642 55.55 14.5826C55.8986 14.401 56.1861 14.1238 56.4127 13.751L57.1056 14.2672C56.8354 14.7546 56.465 15.1274 55.9944 15.3855C55.5238 15.634 54.9965 15.7582 54.4126 15.7582Z" fill="#1B1B1B"/>
<path d="M62.6266 15.2278C62.4523 15.3998 62.2344 15.5336 61.973 15.6292C61.7202 15.7152 61.4544 15.7582 61.1755 15.7582C60.5306 15.7582 60.0339 15.5671 59.6853 15.1847C59.3367 14.8024 59.1624 14.2624 59.1624 13.5646V9.00535H57.9335V8.14511H59.1624V6.49632H60.0905V8.14511H62.1821V9.00535H60.0905V13.5073C60.0905 13.9565 60.1907 14.3006 60.3912 14.5396C60.6003 14.769 60.8966 14.8837 61.2801 14.8837C61.4718 14.8837 61.6549 14.8502 61.8292 14.7833C62.0122 14.7164 62.169 14.6208 62.2998 14.4965L62.6266 15.2278Z" fill="#1B1B1B"/>
<path d="M64.3162 8.14511H65.2444V15.6865H64.3162V8.14511ZM64.7868 6.49632C64.5951 6.49632 64.4339 6.42463 64.3031 6.28126C64.1724 6.13789 64.107 5.96584 64.107 5.76512C64.107 5.57395 64.1724 5.40668 64.3031 5.26331C64.4339 5.11994 64.5951 5.04825 64.7868 5.04825C64.9785 5.04825 65.1398 5.11994 65.2705 5.26331C65.4012 5.39712 65.4666 5.55961 65.4666 5.75078C65.4666 5.96106 65.4012 6.13789 65.2705 6.28126C65.1398 6.42463 64.9785 6.49632 64.7868 6.49632Z" fill="#1B1B1B"/>
<path d="M70.6375 15.7582C69.9751 15.7582 69.3782 15.5957 68.8465 15.2708C68.3149 14.9362 67.8966 14.4774 67.5916 13.8944C67.2866 13.3113 67.134 12.6518 67.134 11.9158C67.134 11.1798 67.2866 10.5203 67.5916 9.93728C67.8966 9.35423 68.3149 8.90021 68.8465 8.57523C69.3782 8.25025 69.9751 8.08776 70.6375 8.08776C71.2998 8.08776 71.8968 8.25025 72.4284 8.57523C72.96 8.90021 73.374 9.35423 73.6703 9.93728C73.9753 10.5203 74.1278 11.1798 74.1278 11.9158C74.1278 12.6518 73.9753 13.3113 73.6703 13.8944C73.374 14.4774 72.96 14.9362 72.4284 15.2708C71.8968 15.5957 71.2998 15.7582 70.6375 15.7582ZM70.6375 14.855C71.1255 14.855 71.5613 14.7355 71.9447 14.4965C72.3369 14.248 72.6419 13.8992 72.8598 13.4499C73.0777 13.0007 73.1866 12.4893 73.1866 11.9158C73.1866 11.3423 73.0777 10.831 72.8598 10.3817C72.6419 9.9325 72.3369 9.5884 71.9447 9.34945C71.5613 9.10093 71.1255 8.97668 70.6375 8.97668C70.1494 8.97668 69.7093 9.10093 69.3172 9.34945C68.9337 9.5884 68.6287 9.9325 68.4021 10.3817C68.1842 10.831 68.0753 11.3423 68.0753 11.9158C68.0753 12.4893 68.1842 13.0007 68.4021 13.4499C68.6287 13.8992 68.9337 14.248 69.3172 14.4965C69.7093 14.7355 70.1494 14.855 70.6375 14.855Z" fill="#1B1B1B"/>
<path d="M79.5262 8.08776C80.389 8.08776 81.0731 8.36495 81.5786 8.91933C82.0928 9.46415 82.3499 10.2623 82.3499 11.3137V15.6865H81.4217V11.414C81.4217 10.6302 81.243 10.0329 80.8857 9.62186C80.5284 9.21085 80.0186 9.00535 79.3562 9.00535C78.6155 9.00535 78.0272 9.24909 77.5915 9.73656C77.1644 10.2145 76.9509 10.8788 76.9509 11.7294V15.6865H76.0228V8.14511H76.9117V9.53583C77.1644 9.07704 77.513 8.72338 77.9575 8.47487C78.4107 8.2168 78.9336 8.08776 79.5262 8.08776Z" fill="#1B1B1B"/>
<path d="M94.7358 15.6865L92.6442 12.4606C92.4089 12.4893 92.1648 12.5037 91.9121 12.5037H89.4545V15.6865H88.4871V5.65042H91.9121C93.0799 5.65042 93.995 5.95628 94.6573 6.56801C95.3197 7.17973 95.6508 8.02085 95.6508 9.09138C95.6508 9.87515 95.4678 10.5394 95.1018 11.0843C94.7445 11.6195 94.2303 12.0066 93.5592 12.2456L95.7946 15.6865H94.7358ZM91.886 11.6004C92.7923 11.6004 93.4852 11.3806 93.9645 10.9409C94.4438 10.5012 94.6835 9.88471 94.6835 9.09138C94.6835 8.27893 94.4438 7.65764 93.9645 7.22752C93.4852 6.78784 92.7923 6.56801 91.886 6.56801H89.4545V11.6004H91.886Z" fill="#1B1B1B"/>
<path d="M103.725 12.2313H97.9733C98.0255 13.015 98.3001 13.6506 98.7968 14.1381C99.2936 14.616 99.9211 14.855 100.679 14.855C101.106 14.855 101.498 14.7737 101.856 14.6112C102.213 14.4392 102.522 14.1907 102.784 13.8657L103.307 14.5252C103.002 14.9267 102.618 15.2325 102.156 15.4428C101.703 15.6531 101.202 15.7582 100.653 15.7582C99.9472 15.7582 99.3197 15.5957 98.7707 15.2708C98.2304 14.9362 97.8077 14.4774 97.5026 13.8944C97.1976 13.3113 97.0451 12.6518 97.0451 11.9158C97.0451 11.1798 97.1889 10.5203 97.4765 9.93728C97.7728 9.35423 98.1737 8.90021 98.6792 8.57523C99.1934 8.25025 99.7686 8.08776 100.405 8.08776C101.041 8.08776 101.612 8.25025 102.117 8.57523C102.623 8.90021 103.019 9.35423 103.307 9.93728C103.594 10.5108 103.738 11.1703 103.738 11.9158L103.725 12.2313ZM100.405 8.96234C99.7424 8.96234 99.1846 9.19652 98.7315 9.66487C98.287 10.1237 98.0343 10.7258 97.9733 11.4714H102.849C102.788 10.7258 102.531 10.1237 102.078 9.66487C101.634 9.19652 101.076 8.96234 100.405 8.96234Z" fill="#1B1B1B"/>
<path d="M107.902 5.8368C107.501 5.8368 107.196 5.95628 106.987 6.19524C106.787 6.43419 106.686 6.78785 106.686 7.2562V8.14511H108.804V9.00535H106.712V15.6865H105.784V9.00535H104.555V8.14511H105.784V7.21319C105.784 6.52499 105.963 5.98018 106.32 5.57873C106.686 5.17729 107.2 4.97656 107.863 4.97656C108.124 4.97656 108.377 5.01957 108.621 5.1056C108.865 5.18206 109.07 5.29676 109.235 5.44969L108.922 6.20957C108.652 5.96106 108.312 5.8368 107.902 5.8368Z" fill="#1B1B1B"/>
<path d="M116.254 8.14511V15.6865H115.365V14.3102C115.121 14.769 114.785 15.1274 114.358 15.3855C113.931 15.634 113.443 15.7582 112.894 15.7582C111.996 15.7582 111.286 15.4858 110.763 14.941C110.249 14.3866 109.992 13.579 109.992 12.518V8.14511H110.92V12.4176C110.92 13.211 111.099 13.8131 111.456 14.2241C111.813 14.6351 112.323 14.8406 112.986 14.8406C113.709 14.8406 114.28 14.6017 114.698 14.1238C115.116 13.6363 115.326 12.9625 115.326 12.1022V8.14511H116.254Z" fill="#1B1B1B"/>
<path d="M122.357 8.08776C123.219 8.08776 123.904 8.36495 124.409 8.91933C124.923 9.46415 125.18 10.2623 125.18 11.3137V15.6865H124.252V11.414C124.252 10.6302 124.073 10.0329 123.716 9.62186C123.359 9.21085 122.849 9.00535 122.187 9.00535C121.446 9.00535 120.858 9.24909 120.422 9.73656C119.995 10.2145 119.781 10.8788 119.781 11.7294V15.6865H118.853V8.14511H119.742V9.53583C119.995 9.07704 120.343 8.72338 120.788 8.47487C121.241 8.2168 121.764 8.08776 122.357 8.08776Z" fill="#1B1B1B"/>
<path d="M134 5.04825V15.6865H133.111V14.1955C132.833 14.702 132.462 15.0892 132 15.3568C131.547 15.6244 131.033 15.7582 130.458 15.7582C129.813 15.7582 129.229 15.5957 128.706 15.2708C128.183 14.9458 127.774 14.4918 127.477 13.9087C127.181 13.3257 127.033 12.6614 127.033 11.9158C127.033 11.1703 127.181 10.506 127.477 9.92294C127.774 9.33989 128.183 8.89065 128.706 8.57523C129.229 8.25025 129.813 8.08776 130.458 8.08776C131.016 8.08776 131.517 8.2168 131.961 8.47487C132.414 8.72338 132.785 9.09138 133.072 9.57884V5.04825H134ZM130.536 14.855C131.016 14.855 131.447 14.7355 131.83 14.4965C132.223 14.248 132.528 13.8992 132.745 13.4499C132.972 13.0007 133.085 12.4893 133.085 11.9158C133.085 11.3423 132.972 10.831 132.745 10.3817C132.528 9.9325 132.223 9.5884 131.83 9.34945C131.447 9.10093 131.016 8.97668 130.536 8.97668C130.048 8.97668 129.608 9.10093 129.216 9.34945C128.832 9.5884 128.527 9.9325 128.301 10.3817C128.083 10.831 127.974 11.3423 127.974 11.9158C127.974 12.4893 128.083 13.0007 128.301 13.4499C128.527 13.8992 128.832 14.248 129.216 14.4965C129.608 14.7355 130.048 14.855 130.536 14.855Z" fill="#1B1B1B"/>
<path d="M0 20.7217L11.951 0.0414987H14.9387L16.9729 5.07745L19.2776 0.0414987C19.2776 0.0414987 24.0436 9.53313e-05 26.4944 0C26.7356 -9.38104e-06 33.3431 3.51125 26.1072 8.86228L31.5295 20.734H28.1L22.9948 8.78774C22.9948 8.78774 28.8862 2.86187 22.7101 3.15083H20.7136L18.3793 8.56103L23.2972 20.734H19.7268L16.6904 12.2975L13.2594 20.734H10.2148L15.3178 8.48265L13.3737 3.08013L3.27243 20.7217H0Z" fill="#1B1B1B"/>
<rect opacity="0.2" width="2.38613" height="4.93373" transform="matrix(-0.902908 -0.429834 0.401683 -0.915779 18.917 9.12305)" fill="url(#paint0_linear_804_1169)"/>
<rect opacity="0.2" width="2.39212" height="4.92181" transform="matrix(0.874294 0.485396 -0.455409 0.890282 15.7637 8.29395)" fill="url(#paint1_linear_804_1169)"/>
<path d="M0 20.7217L11.7258 0H14.6572L22.8589 20.734H19.3558L13.1217 3.04549L3.21077 20.7217H0Z" fill="#1B1B1B"/>
<defs>
<linearGradient id="paint0_linear_804_1169" x1="1.19306" y1="0" x2="1.19306" y2="4.93373" gradientUnits="userSpaceOnUse">
<stop stop-color="#1F398F"/>
<stop offset="1" stop-color="#203062" stop-opacity="0"/>
</linearGradient>
<linearGradient id="paint1_linear_804_1169" x1="1.19606" y1="0" x2="1.19606" y2="4.92181" gradientUnits="userSpaceOnUse">
<stop stop-color="#1F398F"/>
<stop offset="1" stop-color="#203062" stop-opacity="0"/>
</linearGradient>
</defs>
</svg>
