<svg width="18" height="17" viewBox="0 0 18 17" fill="none" xmlns="http://www.w3.org/2000/svg">
<path d="M12.9089 16.0863C13.061 16.1189 13.2163 16.1356 13.372 16.136C13.6614 16.1376 13.9483 16.0833 14.2161 15.9762C14.4839 15.8691 14.7274 15.7114 14.9325 15.5122L16.7385 13.7673C16.8358 13.6694 16.9092 13.5513 16.9531 13.4218C16.997 13.2923 17.0103 13.1548 16.9921 13.0196C16.9738 12.8843 16.9244 12.7549 16.8476 12.6409C16.7708 12.527 16.6686 12.4315 16.5486 12.3615L13.0525 10.1556C12.9202 10.0782 12.767 10.042 12.6131 10.0517C12.4593 10.0614 12.3121 10.1165 12.1912 10.2099L10.751 11.3264C9.70161 10.8912 8.74744 10.2636 7.94017 9.47757C7.12764 8.7191 6.47207 7.81521 6.00916 6.81511L7.17147 5.45902C7.27304 5.34005 7.33281 5.1924 7.34198 5.03779C7.35115 4.88318 7.30924 4.72978 7.22241 4.60016L4.90706 1.25966C4.83135 1.15022 4.73201 1.05829 4.616 0.990348C4.5 0.922405 4.37016 0.880095 4.2356 0.866393C4.10584 0.855856 3.97525 0.872149 3.85238 0.91421C3.7295 0.95627 3.61708 1.02315 3.52248 1.11049L1.67019 2.85081C1.40469 3.09382 1.20772 3.39945 1.09823 3.73828C0.988746 4.07712 0.970431 4.43775 1.04505 4.7855C1.67788 7.57569 3.12547 10.1271 5.21268 12.131C7.3454 14.1305 10.0132 15.5015 12.9089 16.0863Z" stroke="white" stroke-width="0.5"/>
</svg>
