<svg width="16" height="20" viewBox="0 0 16 20" fill="none" xmlns="http://www.w3.org/2000/svg">
<g clip-path="url(#clip0_744_1026)">
<path d="M15.7967 4.04941L8.07389 0.0440564C7.95907 -0.0153019 7.82227 -0.0147672 7.70855 0.0461955L0.19943 4.05155C0.0763658 4.11732 0 4.24299 0 4.37989V9.61198C0.00439515 13.9131 2.62226 17.804 6.67074 19.527L7.71294 19.9692C7.81018 20.0104 7.92116 20.0109 8.01895 19.9697L9.19356 19.4762C13.3173 17.7906 16 13.8617 16 9.50877V4.37989C16 4.24192 15.922 4.11465 15.7967 4.04941ZM15.2314 9.50824C15.2303 13.5612 12.7322 17.2189 8.89249 18.7874L8.88974 18.7885L7.86677 19.2184L6.97785 18.8409C3.21011 17.2371 0.772997 13.6157 0.768602 9.61198V4.60128L7.89534 0.799137L15.2314 4.60449V9.50824Z" fill="white"/>
<path d="M5.05998 9.3692C4.92208 9.21198 4.67925 9.19327 4.51773 9.32749C4.3562 9.46171 4.33698 9.69808 4.47487 9.85476L6.50598 12.1697C6.64168 12.3243 6.87902 12.3451 7.04109 12.2173L11.7708 8.47188C11.9356 8.34139 11.9604 8.10557 11.8263 7.94567C11.6923 7.78524 11.45 7.76118 11.2857 7.89166L6.84716 11.4061L5.05998 9.3692Z" fill="white"/>
</g>
<defs>
<clipPath id="clip0_744_1026">
<rect width="16" height="20" fill="white"/>
</clipPath>
</defs>
</svg>
