<svg width="16" height="22" viewBox="0 0 16 22" fill="none" xmlns="http://www.w3.org/2000/svg">
<path fill-rule="evenodd" clip-rule="evenodd" d="M11.4731 4.01953H2C1.17157 4.01953 0.5 4.6911 0.5 5.51953V19.9995C0.5 20.8279 1.17157 21.4995 2 21.4995H11.4731C12.3015 21.4995 12.9731 20.8279 12.9731 19.9995V5.51953C12.9731 4.6911 12.3015 4.01953 11.4731 4.01953ZM2 3.51953C0.895431 3.51953 0 4.41496 0 5.51953V19.9995C0 21.1041 0.895429 21.9995 2 21.9995H11.4731C12.5777 21.9995 13.4731 21.1041 13.4731 19.9995V5.51953C13.4731 4.41496 12.5777 3.51953 11.4731 3.51953H2Z" fill="white"/>
<path fill-rule="evenodd" clip-rule="evenodd" d="M4.52686 0.5H14C14.8284 0.5 15.5 1.17157 15.5 2V16.48C15.5 17.3084 14.8284 17.98 14 17.98H13.4722V18.48H14C15.1045 18.48 16 17.5846 16 16.48V2C16 0.89543 15.1045 0 14 0H4.52686C3.42229 0 2.52686 0.895431 2.52686 2V3.51953H3.02686V2C3.02686 1.17157 3.69843 0.5 4.52686 0.5Z" fill="white"/>
<path fill-rule="evenodd" clip-rule="evenodd" d="M10.9475 9.30078H2.52686V8.30078H10.9475V9.30078Z" fill="white"/>
<path fill-rule="evenodd" clip-rule="evenodd" d="M10.9475 11.9414H2.52686V10.9414H10.9475V11.9414Z" fill="white"/>
<path fill-rule="evenodd" clip-rule="evenodd" d="M6.7372 18.1016H2.52686V17.1016H6.7372V18.1016Z" fill="white"/>
</svg>
