<svg width="21" height="18" viewBox="0 0 21 18" fill="none" xmlns="http://www.w3.org/2000/svg">
<path d="M20.5263 2.35635C20.3899 2.20652 20.1702 2.16885 19.99 2.26125C19.8779 2.31867 19.6671 2.39403 19.4169 2.46849C19.7326 2.04863 19.9864 1.57853 20.0985 1.15598C20.1469 0.973864 20.0761 0.781877 19.9218 0.673324C19.7676 0.565668 19.5622 0.565668 19.4079 0.673324C19.1649 0.842882 17.9919 1.35245 17.2502 1.51753C15.5741 0.0489196 13.6235 -0.103593 11.5959 1.08062C9.94753 2.04325 9.58881 4.00079 9.65876 5.19398C5.8859 4.83064 3.54076 2.83721 2.22066 1.18738C2.12829 1.07165 1.97942 1.01065 1.83951 1.01962C1.69244 1.03038 1.55971 1.11202 1.48438 1.23852C0.860203 2.29265 0.68712 3.45803 0.985756 4.60905C1.14897 5.23704 1.43416 5.79057 1.76508 6.23914C1.60635 6.16109 1.45299 6.0633 1.30861 5.94667C1.17588 5.83722 0.99024 5.81659 0.833299 5.88926C0.677255 5.96372 0.57771 6.12161 0.57771 6.29476C0.57771 8.27114 1.81351 9.58993 2.9677 10.2789C2.78116 10.2565 2.58655 10.2152 2.39015 10.1551C2.22155 10.104 2.03861 10.1551 1.92202 10.2879C1.80544 10.4198 1.77764 10.6082 1.85028 10.7688C2.49867 12.2033 3.72729 13.1901 5.24738 13.5481C3.9201 14.3277 2.14353 14.7099 0.516727 14.5224C0.305978 14.4928 0.105093 14.6264 0.0387296 14.8292C-0.027634 15.0319 0.0593561 15.2544 0.244995 15.3585C2.713 16.7446 4.94426 17.2398 6.87239 17.2398C9.67849 17.2398 11.8443 16.1919 13.1626 15.3154C16.7166 12.956 18.9317 8.71971 18.6232 4.92932C19.1927 4.50857 20.0447 3.73165 20.5729 2.89642C20.6823 2.72776 20.6626 2.50527 20.5263 2.35635Z" fill="white"/>
</svg>
