<svg width="27" height="22" viewBox="0 0 27 22" fill="none" xmlns="http://www.w3.org/2000/svg">
<path d="M26.4662 2.63962C26.2919 2.44805 26.0109 2.39987 25.7804 2.51802C25.6371 2.59144 25.3676 2.6878 25.0477 2.78301C25.4513 2.24615 25.7759 1.64505 25.9192 1.10475C25.9811 0.871885 25.8905 0.626399 25.6933 0.487596C25.4961 0.34994 25.2335 0.34994 25.0362 0.487596C24.7255 0.704404 23.2256 1.35598 22.2772 1.56705C20.134 -0.310808 17.6399 -0.505821 15.0472 1.00839C12.9395 2.23927 12.4809 4.74231 12.5703 6.268C7.74608 5.80341 4.74742 3.25448 3.05946 1.1449C2.94135 0.996923 2.75099 0.918918 2.57211 0.930389C2.38404 0.944155 2.21433 1.04854 2.11801 1.21029C1.31989 2.55817 1.09858 4.0483 1.48043 5.52007C1.68914 6.32306 2.05379 7.03084 2.47693 7.60441C2.27396 7.50461 2.07787 7.37957 1.89325 7.23044C1.72354 7.09049 1.48617 7.06411 1.28549 7.15702C1.08597 7.25224 0.95868 7.45413 0.95868 7.67553C0.95868 10.2027 2.53885 11.8889 4.01467 12.7699C3.77615 12.7413 3.52732 12.6885 3.27619 12.6116C3.06061 12.5463 2.82668 12.6116 2.6776 12.7814C2.52853 12.95 2.49298 13.1909 2.58587 13.3963C3.41494 15.2305 4.98594 16.4924 6.92962 16.9501C5.23248 17.947 2.96084 18.4356 0.880704 18.1959C0.611226 18.158 0.354362 18.3289 0.269505 18.5882C0.184648 18.8475 0.29588 19.1319 0.533249 19.265C3.68901 21.0373 6.54203 21.6705 9.00746 21.6705C12.5955 21.6705 15.3648 20.3307 17.0505 19.2099C21.5949 16.193 24.4273 10.7762 24.0329 5.92959C24.761 5.39159 25.8504 4.39817 26.5258 3.33019C26.6657 3.11453 26.6405 2.83004 26.4662 2.63962Z" fill="white"/>
</svg>
